<svg xmlns="http://www.w3.org/2000/svg" viewBox="0 0 44 44">
  <defs>
    <linearGradient id="axlFaviconRing" gradientUnits="userSpaceOnUse" x1="6" y1="6" x2="38" y2="38">
      <stop offset="0" stop-color="#7FD69E"/>
      <stop offset="0.5" stop-color="#5FB9D9"/>
      <stop offset="1" stop-color="#9E9BE3"/>
    </linearGradient>
  </defs>
  <!-- night badge -->
  <circle cx="22" cy="22" r="22" fill="#0D1820"/>
  <!-- meditating bot -->
  <g fill="none" stroke="url(#axlFaviconRing)" stroke-width="1.7" stroke-linecap="round" stroke-linejoin="round">
    <line x1="22" y1="9.3" x2="22" y2="7.3"/>
    <circle cx="22" cy="6.1" r="1.1"/>
    <rect x="15.5" y="9.5" width="13" height="10" rx="3.6"/>
    <path d="M18,14 q1.7,1.4 3.4,0"/>
    <path d="M22.6,14 q1.7,1.4 3.4,0"/>
    <path d="M16.6,20 C13.9,22.3 13.1,25.8 16,28"/>
    <path d="M27.4,20 C30.1,22.3 30.9,25.8 28,28"/>
    <path d="M13,30 Q22,26.2 31,30"/>
    <path d="M14,30.5 Q22,34.6 30,30.5"/>
    <path d="M19.4,31 L24.6,33.4"/>
    <path d="M24.6,31 L19.4,33.4"/>
  </g>
</svg>
