<svg xmlns="http://www.w3.org/2000/svg" viewBox="0 0 44 44">
  <defs>
    <linearGradient id="prometheusFlame" gradientUnits="userSpaceOnUse" x1="22" y1="7" x2="22" y2="33">
      <stop offset="0" stop-color="#FFD27F"/>
      <stop offset="0.5" stop-color="#FF9463"/>
      <stop offset="1" stop-color="#9E9BE3"/>
    </linearGradient>
  </defs>
  <!-- night badge -->
  <circle cx="22" cy="22" r="22" fill="#0D1820"/>
  <!-- the fire of forethought -->
  <g fill="none" stroke="url(#prometheusFlame)" stroke-width="1.7" stroke-linecap="round" stroke-linejoin="round">
    <!-- spark of insight, ahead of the flame -->
    <path d="M22,2.6 L22.5,4.1 L24,4.6 L22.5,5.1 L22,6.6 L21.5,5.1 L20,4.6 L21.5,4.1 Z"/>
    <!-- outer flame -->
    <path d="M22,8.5
             C24.5,13 27.5,15.5 27.5,21.5
             C27.5,27.5 25.3,31.5 22,32.6
             C18.7,31.5 16.5,27.5 16.5,22.5
             C16.5,18.8 18.8,17 19.2,13.8
             C19.5,11.4 20.7,10 22,8.5 Z"/>
    <!-- inner flame -->
    <path d="M22,15
             C23.5,18 25,20 25,23.5
             C25,27 23.5,29.5 22,30.2
             C20.5,29.5 19,27 19,23.7
             C19,21 20.5,19 21,17
             C21.2,16 21.5,15.5 22,15 Z"/>
  </g>
</svg>
